<svg id="logo" xmlns="http://www.w3.org/2000/svg" width="31.243" height="23.313" viewBox="0 0 31.243 23.313">
  <path id="패스_1" data-name="패스 1" d="M83.707,333.154a1.819,1.819,0,0,1-1.168-2.292l-.171.527a1.819,1.819,0,1,0,3.459,1.124l.171-.527A1.818,1.818,0,0,1,83.707,333.154Z" transform="translate(-82.278 -310.458)" fill="#fff" opacity="0.1"/>
  <path id="패스_2" data-name="패스 2" d="M84.268,331.425a1.819,1.819,0,0,1-1.168-2.292l-.171.527a1.819,1.819,0,0,0,3.46,1.124l.171-.527A1.819,1.819,0,0,1,84.268,331.425Z" transform="translate(-82.668 -309.256)" fill="#fff" opacity="0.2"/>
  <path id="패스_3" data-name="패스 3" d="M84.83,329.7a1.819,1.819,0,0,1-1.168-2.292l-.171.527a1.819,1.819,0,0,0,3.46,1.124l.171-.527A1.819,1.819,0,0,1,84.83,329.7Z" transform="translate(-83.059 -308.054)" fill="#fff" opacity="0.3"/>
  <path id="패스_4" data-name="패스 4" d="M85.392,327.967a1.818,1.818,0,0,1-1.168-2.292l-.171.527a1.819,1.819,0,0,0,3.46,1.124l.171-.527A1.819,1.819,0,0,1,85.392,327.967Z" transform="translate(-83.45 -306.852)" fill="#fff" opacity="0.4"/>
  <path id="패스_5" data-name="패스 5" d="M85.954,326.237a1.819,1.819,0,0,1-1.168-2.292l-.171.527a1.819,1.819,0,0,0,3.46,1.124l.171-.527A1.819,1.819,0,0,1,85.954,326.237Z" transform="translate(-83.84 -305.65)" fill="#fff" opacity="0.5"/>
  <path id="패스_6" data-name="패스 6" d="M86.516,324.508a1.819,1.819,0,0,1-1.168-2.292l-.171.527a1.819,1.819,0,1,0,3.459,1.124l.171-.527A1.819,1.819,0,0,1,86.516,324.508Z" transform="translate(-84.231 -304.448)" fill="#fff" opacity="0.6"/>
  <path id="패스_7" data-name="패스 7" d="M87.077,322.779a1.819,1.819,0,0,1-1.168-2.292l-.171.527a1.819,1.819,0,0,0,3.46,1.124l.171-.527A1.819,1.819,0,0,1,87.077,322.779Z" transform="translate(-84.621 -303.246)" fill="#fff" opacity="0.7"/>
  <path id="패스_8" data-name="패스 8" d="M87.639,321.05a1.819,1.819,0,0,1-1.168-2.292l-.171.527a1.819,1.819,0,0,0,3.46,1.124l.171-.527A1.819,1.819,0,0,1,87.639,321.05Z" transform="translate(-85.012 -302.044)" fill="#fff" opacity="0.8"/>
  <path id="패스_9" data-name="패스 9" d="M88.2,319.321a1.819,1.819,0,0,1-1.168-2.292l-.171.527a1.819,1.819,0,0,0,3.46,1.124l.171-.527A1.819,1.819,0,0,1,88.2,319.321Z" transform="translate(-85.402 -300.842)" fill="#fff" opacity="0.9"/>
  <path id="패스_10" data-name="패스 10" d="M106.917,314.512a1.819,1.819,0,0,1-1.168-2.292l-.171.527a1.819,1.819,0,0,0,3.46,1.124l.171-.527A1.819,1.819,0,0,1,106.917,314.512Z" transform="translate(-98.412 -297.5)" fill="#fff" opacity="0.1"/>
  <path id="패스_11" data-name="패스 11" d="M107.479,312.782a1.819,1.819,0,0,1-1.168-2.292l-.171.527a1.819,1.819,0,0,0,3.46,1.124l.171-.527A1.819,1.819,0,0,1,107.479,312.782Z" transform="translate(-98.802 -296.297)" fill="#fff" opacity="0.2"/>
  <path id="패스_12" data-name="패스 12" d="M108.041,311.053a1.819,1.819,0,0,1-1.168-2.292l-.171.527a1.819,1.819,0,1,0,3.459,1.124l.171-.527A1.819,1.819,0,0,1,108.041,311.053Z" transform="translate(-99.193 -295.095)" fill="#fff" opacity="0.3"/>
  <path id="패스_13" data-name="패스 13" d="M108.6,309.324a1.819,1.819,0,0,1-1.168-2.292l-.171.527a1.819,1.819,0,1,0,3.46,1.124l.171-.527A1.819,1.819,0,0,1,108.6,309.324Z" transform="translate(-99.583 -293.894)" fill="#fff" opacity="0.4"/>
  <path id="패스_14" data-name="패스 14" d="M109.164,307.6A1.819,1.819,0,0,1,108,305.3l-.171.527a1.819,1.819,0,1,0,3.46,1.124l.171-.527A1.819,1.819,0,0,1,109.164,307.6Z" transform="translate(-99.973 -292.692)" fill="#fff" opacity="0.5"/>
  <path id="패스_15" data-name="패스 15" d="M109.726,305.866a1.819,1.819,0,0,1-1.168-2.292l-.171.527a1.819,1.819,0,1,0,3.46,1.124l.171-.527A1.819,1.819,0,0,1,109.726,305.866Z" transform="translate(-100.364 -291.49)" fill="#fff" opacity="0.6"/>
  <path id="패스_16" data-name="패스 16" d="M110.288,304.137a1.819,1.819,0,0,1-1.168-2.292l-.171.527a1.819,1.819,0,1,0,3.46,1.124l.171-.527A1.819,1.819,0,0,1,110.288,304.137Z" transform="translate(-100.755 -290.288)" fill="#fff" opacity="0.7"/>
  <path id="패스_17" data-name="패스 17" d="M110.85,302.408a1.819,1.819,0,0,1-1.167-2.292l-.171.527a1.819,1.819,0,1,0,3.459,1.124l.171-.527A1.819,1.819,0,0,1,110.85,302.408Z" transform="translate(-101.145 -289.086)" fill="#fff" opacity="0.8"/>
  <path id="패스_18" data-name="패스 18" d="M111.411,300.679a1.819,1.819,0,0,1-1.168-2.292l-.171.527a1.819,1.819,0,1,0,3.459,1.124l.171-.527A1.819,1.819,0,0,1,111.411,300.679Z" transform="translate(-101.536 -287.885)" fill="#fff" opacity="0.9"/>
  <path id="패스_19" data-name="패스 19" d="M118.548,331.937a1.819,1.819,0,0,1-1.168-2.292l-.171.527a1.819,1.819,0,0,0,3.46,1.124l.171-.527A1.819,1.819,0,0,1,118.548,331.937Z" transform="translate(-106.496 -309.612)" fill="#fff" opacity="0.1"/>
  <path id="패스_20" data-name="패스 20" d="M119.11,330.208a1.819,1.819,0,0,1-1.168-2.292l-.171.527a1.819,1.819,0,0,0,3.46,1.124l.171-.527A1.819,1.819,0,0,1,119.11,330.208Z" transform="translate(-106.887 -308.41)" fill="#fff" opacity="0.2"/>
  <path id="패스_21" data-name="패스 21" d="M119.672,328.479a1.819,1.819,0,0,1-1.168-2.292l-.171.527a1.819,1.819,0,0,0,3.46,1.124l.171-.527A1.819,1.819,0,0,1,119.672,328.479Z" transform="translate(-107.277 -307.208)" fill="#fff" opacity="0.3"/>
  <path id="패스_22" data-name="패스 22" d="M120.234,326.75a1.819,1.819,0,0,1-1.168-2.292l-.171.527a1.819,1.819,0,1,0,3.459,1.124l.171-.527A1.819,1.819,0,0,1,120.234,326.75Z" transform="translate(-107.668 -306.006)" fill="#fff" opacity="0.4"/>
  <path id="패스_23" data-name="패스 23" d="M120.8,325.021a1.819,1.819,0,0,1-1.168-2.292l-.171.527a1.819,1.819,0,0,0,3.46,1.124l.171-.527A1.819,1.819,0,0,1,120.8,325.021Z" transform="translate(-108.058 -304.804)" fill="#fff" opacity="0.5"/>
  <path id="패스_24" data-name="패스 24" d="M121.357,323.292A1.819,1.819,0,0,1,120.189,321l-.171.527a1.819,1.819,0,0,0,3.46,1.124l.171-.527A1.819,1.819,0,0,1,121.357,323.292Z" transform="translate(-108.449 -303.603)" fill="#fff" opacity="0.6"/>
  <path id="패스_25" data-name="패스 25" d="M121.919,321.563a1.819,1.819,0,0,1-1.168-2.292l-.171.527a1.819,1.819,0,0,0,3.46,1.124l.171-.527A1.819,1.819,0,0,1,121.919,321.563Z" transform="translate(-108.839 -302.401)" fill="#fff" opacity="0.7"/>
  <path id="패스_26" data-name="패스 26" d="M122.481,319.834a1.819,1.819,0,0,1-1.168-2.292l-.171.527a1.819,1.819,0,0,0,3.46,1.124l.171-.527A1.818,1.818,0,0,1,122.481,319.834Z" transform="translate(-109.23 -301.199)" fill="#fff" opacity="0.8"/>
  <path id="패스_27" data-name="패스 27" d="M123.043,318.1a1.819,1.819,0,0,1-1.167-2.292l-.171.527a1.819,1.819,0,0,0,3.459,1.124l.171-.527A1.819,1.819,0,0,1,123.043,318.1Z" transform="translate(-109.621 -299.997)" fill="#fff" opacity="0.9"/>
  <path id="패스_28" data-name="패스 28" d="M141.759,313.295A1.819,1.819,0,0,1,140.591,311l-.171.527a1.819,1.819,0,1,0,3.459,1.124l.171-.527A1.819,1.819,0,0,1,141.759,313.295Z" transform="translate(-122.63 -296.654)" fill="#fff" opacity="0.1"/>
  <path id="패스_29" data-name="패스 29" d="M142.32,311.566a1.819,1.819,0,0,1-1.168-2.292l-.171.527a1.819,1.819,0,0,0,3.46,1.124l.171-.527A1.819,1.819,0,0,1,142.32,311.566Z" transform="translate(-123.02 -295.452)" fill="#fff" opacity="0.2"/>
  <path id="패스_30" data-name="패스 30" d="M142.882,309.837a1.819,1.819,0,0,1-1.168-2.292l-.171.527A1.819,1.819,0,1,0,145,309.2l.171-.527A1.819,1.819,0,0,1,142.882,309.837Z" transform="translate(-123.411 -294.25)" fill="#fff" opacity="0.3"/>
  <path id="패스_31" data-name="패스 31" d="M143.444,308.108a1.819,1.819,0,0,1-1.168-2.292l-.171.527a1.819,1.819,0,0,0,3.46,1.124l.171-.527A1.819,1.819,0,0,1,143.444,308.108Z" transform="translate(-123.801 -293.048)" fill="#fff" opacity="0.4"/>
  <path id="패스_32" data-name="패스 32" d="M144.006,306.379a1.818,1.818,0,0,1-1.168-2.292l-.171.527a1.819,1.819,0,0,0,3.46,1.124l.171-.527A1.819,1.819,0,0,1,144.006,306.379Z" transform="translate(-124.192 -291.847)" fill="#fff" opacity="0.5"/>
  <path id="패스_33" data-name="패스 33" d="M144.568,304.65a1.818,1.818,0,0,1-1.167-2.292l-.171.527a1.819,1.819,0,0,0,3.459,1.124l.171-.527A1.819,1.819,0,0,1,144.568,304.65Z" transform="translate(-124.582 -290.645)" fill="#fff" opacity="0.6"/>
  <path id="패스_34" data-name="패스 34" d="M145.13,302.92a1.819,1.819,0,0,1-1.168-2.292l-.171.527a1.819,1.819,0,1,0,3.459,1.124l.171-.527A1.819,1.819,0,0,1,145.13,302.92Z" transform="translate(-124.973 -289.442)" fill="#fff" opacity="0.7"/>
  <path id="패스_35" data-name="패스 35" d="M145.691,301.191a1.819,1.819,0,0,1-1.168-2.292l-.171.527a1.819,1.819,0,0,0,3.46,1.124l.171-.527A1.819,1.819,0,0,1,145.691,301.191Z" transform="translate(-125.363 -288.24)" fill="#fff" opacity="0.8"/>
  <path id="패스_36" data-name="패스 36" d="M146.253,299.462a1.819,1.819,0,0,1-1.168-2.292l-.171.527a1.819,1.819,0,1,0,3.46,1.124l.171-.527A1.819,1.819,0,0,1,146.253,299.462Z" transform="translate(-125.754 -287.039)" fill="#fff" opacity="0.9"/>
  <path id="패스_37" data-name="패스 37" d="M153.39,330.72a1.819,1.819,0,0,1-1.168-2.292l-.171.527a1.819,1.819,0,1,0,3.46,1.124l.171-.527A1.819,1.819,0,0,1,153.39,330.72Z" transform="translate(-130.715 -308.766)" fill="#fff" opacity="0.1"/>
  <path id="패스_38" data-name="패스 38" d="M153.952,328.991a1.819,1.819,0,0,1-1.168-2.292l-.171.527a1.819,1.819,0,1,0,3.459,1.124l.171-.527A1.819,1.819,0,0,1,153.952,328.991Z" transform="translate(-131.105 -307.564)" fill="#fff" opacity="0.2"/>
  <path id="패스_39" data-name="패스 39" d="M154.513,327.262a1.819,1.819,0,0,1-1.168-2.292l-.171.527a1.819,1.819,0,1,0,3.46,1.124l.171-.527A1.819,1.819,0,0,1,154.513,327.262Z" transform="translate(-131.495 -306.362)" fill="#fff" opacity="0.3"/>
  <path id="패스_40" data-name="패스 40" d="M155.075,325.533a1.819,1.819,0,0,1-1.168-2.292l-.171.527a1.819,1.819,0,1,0,3.46,1.124l.171-.527A1.819,1.819,0,0,1,155.075,325.533Z" transform="translate(-131.886 -305.16)" fill="#fff" opacity="0.4"/>
  <path id="패스_41" data-name="패스 41" d="M155.637,323.8a1.819,1.819,0,0,1-1.168-2.292l-.171.527a1.819,1.819,0,0,0,3.46,1.124l.171-.527A1.819,1.819,0,0,1,155.637,323.8Z" transform="translate(-132.276 -303.959)" fill="#fff" opacity="0.5"/>
  <path id="패스_42" data-name="패스 42" d="M156.2,322.075a1.819,1.819,0,0,1-1.168-2.292l-.171.527a1.819,1.819,0,1,0,3.46,1.124l.171-.527A1.819,1.819,0,0,1,156.2,322.075Z" transform="translate(-132.667 -302.757)" fill="#fff" opacity="0.6"/>
  <path id="패스_43" data-name="패스 43" d="M156.761,320.346a1.819,1.819,0,0,1-1.168-2.292l-.171.527a1.819,1.819,0,1,0,3.459,1.124l.171-.527A1.819,1.819,0,0,1,156.761,320.346Z" transform="translate(-133.058 -301.555)" fill="#fff" opacity="0.7"/>
  <path id="패스_44" data-name="패스 44" d="M157.322,318.617a1.819,1.819,0,0,1-1.168-2.292l-.171.527a1.819,1.819,0,1,0,3.459,1.124l.171-.527A1.819,1.819,0,0,1,157.322,318.617Z" transform="translate(-133.448 -300.353)" fill="#fff" opacity="0.8"/>
  <path id="패스_45" data-name="패스 45" d="M157.884,316.888a1.819,1.819,0,0,1-1.168-2.292l-.171.527a1.819,1.819,0,0,0,3.46,1.124l.171-.527A1.819,1.819,0,0,1,157.884,316.888Z" transform="translate(-133.838 -299.151)" fill="#fff" opacity="0.9"/>
  <g id="그룹_1" data-name="그룹 1" transform="translate(4.862)">
    <path id="패스_46" data-name="패스 46" d="M124.605,265.453l-3.559-1.511-1.212.706,1.97.836-12.993,7.564-8.867-3.773-1.721.988,10.446,4.445Z" transform="translate(-98.223 -263.942)" fill="#cc9548"/>
  </g>
  <path id="패스_47" data-name="패스 47" d="M145.476,289.983a1.819,1.819,0,1,0,3.46,1.124l1.39-4.277-4.716,2.74Z" transform="translate(-126.144 -279.851)" fill="#fff"/>
  <path id="패스_48" data-name="패스 48" d="M160.2,277.163l-3.091,9.5a1.819,1.819,0,0,0,3.46,1.124l4.348-13.375Z" transform="translate(-134.229 -271.222)" fill="#fff"/>
  <path id="패스_49" data-name="패스 49" d="M87.424,297.062a1.819,1.819,0,1,0,3.46,1.124l2.747-8.457L90.269,288.3Z" transform="translate(-85.793 -280.875)" fill="#fff"/>
  <path id="패스_50" data-name="패스 50" d="M110.634,295.826a1.819,1.819,0,1,0,3.46,1.124l.268-.822L111,294.7Z" transform="translate(-101.926 -285.323)" fill="#fff"/>
  <path id="패스_51" data-name="패스 51" d="M125.428,300.456l-1.71-.725-.688,2.118h0l-.764,2.351a1.819,1.819,0,1,0,3.459,1.124l2.023-6.217Z" transform="translate(-110.011 -288.386)" fill="#fff"/>
</svg>
